<?xml version="1.0" standalone="no"?>
<!DOCTYPE svg PUBLIC "-//W3C//DTD SVG 20010904//EN"
 "http://www.w3.org/TR/2001/REC-SVG-20010904/DTD/svg10.dtd">
<svg version="1.0" xmlns="http://www.w3.org/2000/svg"
 width="1280.000000pt" height="1280.000000pt" viewBox="0 0 1280.000000 1280.000000"
 preserveAspectRatio="xMidYMid meet">
<metadata>
Created by potrace 1.14, written by Peter Selinger 2001-2017
</metadata>
<g transform="translate(0.000000,1280.000000) scale(0.100000,-0.100000)"
fill="#000000" stroke="none">
<path d="M3318 11965 c-2 -1 -41 -6 -88 -9 -208 -17 -538 -89 -715 -155 -319
-120 -517 -219 -780 -389 -113 -73 -321 -227 -440 -327 -252 -210 -613 -582
-715 -735 -8 -12 -20 -28 -26 -34 -41 -44 -188 -285 -253 -415 -106 -211 -217
-539 -247 -728 -3 -21 -7 -40 -9 -43 -2 -3 -7 -37 -10 -75 -4 -39 -9 -73 -10
-76 -18 -29 -27 -519 -13 -691 9 -111 33 -273 59 -413 12 -60 23 -119 25 -131
2 -11 20 -83 40 -160 125 -486 336 -993 639 -1534 144 -258 222 -382 502 -801
64 -96 317 -435 431 -578 100 -126 346 -424 377 -457 5 -6 35 -40 65 -75 30
-35 75 -86 100 -114 44 -49 67 -74 221 -240 115 -125 641 -649 768 -765 63
-58 119 -110 125 -115 49 -47 379 -334 446 -390 46 -38 92 -77 100 -85 9 -8
33 -28 54 -45 21 -16 46 -37 56 -45 35 -29 56 -46 170 -136 211 -166 468 -358
619 -464 238 -166 502 -338 710 -462 90 -54 165 -98 167 -98 2 0 26 -14 54
-30 132 -78 363 -195 551 -280 l109 -49 68 30 c109 50 420 205 512 255 452
246 1165 726 1600 1076 39 31 186 149 270 216 30 24 60 49 65 56 6 6 33 29 60
51 28 21 52 42 55 45 3 3 37 32 75 65 73 62 338 297 366 324 9 9 67 63 130
121 157 145 578 566 735 735 365 392 649 731 937 1115 80 107 155 206 165 220
52 68 320 473 404 610 177 288 383 673 483 900 15 36 38 88 51 115 102 222
270 725 319 954 2 9 10 48 19 86 20 93 44 237 52 305 3 30 7 66 10 80 25 160
26 660 0 795 -2 11 -7 47 -10 80 -4 33 -9 67 -11 75 -2 8 -7 31 -10 50 -27
161 -120 450 -206 640 -77 170 -241 440 -349 574 -209 261 -547 592 -815 798
-49 38 -98 76 -109 85 -45 37 -275 188 -369 242 -92 53 -265 144 -277 146 -3
1 -30 13 -60 27 -91 43 -308 127 -370 143 -8 2 -55 16 -105 30 -145 41 -303
70 -490 92 -133 15 -635 6 -665 -12 -3 -2 -34 -6 -70 -10 -36 -4 -68 -9 -71
-11 -4 -2 -24 -6 -45 -9 -73 -11 -319 -76 -424 -112 -412 -140 -819 -357
-1185 -632 -229 -171 -367 -292 -582 -510 -90 -90 -163 -160 -163 -155 0 11
-230 247 -321 329 -122 111 -149 134 -329 278 -53 43 -192 142 -290 207 -385
256 -808 450 -1200 550 -87 23 -100 25 -160 36 -19 4 -44 8 -55 10 -120 22
-142 25 -270 40 -51 6 -442 14 -447 9z"/>
</g>
</svg>
